<?xml version="1.0" encoding="UTF-8" standalone="no" ?>
<!DOCTYPE svg PUBLIC "-//W3C//DTD SVG 1.1//EN" "http://www.w3.org/Graphics/SVG/1.1/DTD/svg11.dtd">
<svg xmlns="http://www.w3.org/2000/svg" xmlns:xlink="http://www.w3.org/1999/xlink" version="1.1" width="1080" height="1080" viewBox="0 0 1080 1080" xml:space="preserve">
<desc>Created with Fabric.js 5.2.4</desc>
<defs>
</defs>
<rect x="0" y="0" width="100%" height="100%" fill="transparent"></rect>
<g transform="matrix(1 0 0 1 540 540)" id="b7a1ce18-b44a-44cc-9bcb-e99544c69ebb"  >
<rect style="stroke: none; stroke-width: 1; stroke-dasharray: none; stroke-linecap: butt; stroke-dashoffset: 0; stroke-linejoin: miter; stroke-miterlimit: 4; fill: rgb(255,255,255); fill-rule: nonzero; opacity: 1; visibility: hidden;" vector-effect="non-scaling-stroke"  x="-540" y="-540" rx="0" ry="0" width="1080" height="1080" />
</g>
<g transform="matrix(1 0 0 1 540 540)" id="5d8954ce-a48d-4c7f-91f4-eed6423c7b03"  >
</g>
<g transform="matrix(1 0 0 1 540 540)"  >
<g style="" vector-effect="non-scaling-stroke"   >
		<g transform="matrix(1 0 0 1 0 23.07)"  >
<path style="stroke: none; stroke-width: 1; stroke-dasharray: none; stroke-linecap: butt; stroke-dashoffset: 0; stroke-linejoin: miter; stroke-miterlimit: 4; fill: rgb(0,5,255); fill-rule: nonzero; opacity: 1;" vector-effect="non-scaling-stroke"  transform=" translate(-256, -279.07)" d="M 256 243.592 C 275.5956889663498 243.59172402982176 291.48156885841087 259.47654458624265 291.48259965272996 279.07223352742426 C 291.4836304470491 298.66792246860587 275.5994218250489 314.5544142307117 256.0037329381113 314.5561998491702 C 236.4080440511737 314.55798546762867 220.52094044259516 298.67438880361794 220.51839999999999 279.0787 C 220.51801327853298 259.4817681863791 236.40306833320597 243.59442986993722 256 243.592 Z" stroke-linecap="round" />
</g>
		<g transform="matrix(1 0 0 1 0 0)"  >
<path style="stroke: none; stroke-width: 1; stroke-dasharray: none; stroke-linecap: butt; stroke-dashoffset: 0; stroke-linejoin: miter; stroke-miterlimit: 4; fill: rgb(0,5,255); fill-rule: nonzero; opacity: 1;" vector-effect="non-scaling-stroke"  transform=" translate(-256, -256)" d="M 364.3151 188.5361 L 245.4175 188.5361 L 245.4175 154.123 C 245.41951743588504 150.4934388333085 243.978641740924 147.0119409348636 241.41224781560095 144.445359443294 C 238.84585389027794 141.8787779517244 235.36446130443852 140.4376478228089 231.73489999999998 140.43939999999998 L 177.3291 140.43939999999998 C 173.6999023298479 140.43913474849 170.21927100887675 141.88071042950625 167.65304071919152 144.44694071919147 C 165.08681042950627 147.01317100887672 163.64523474849003 150.49380232984788 163.6455 154.123 L 163.6455 188.53609999999998 L 147.6889 188.53609999999998 C 141.64027067512146 188.53461452660727 135.83887646122983 190.93641618731627 131.56137130910105 195.21296486468725 C 127.28386615697228 199.48951354205823 124.88076718616972 205.29037049417207 124.8809 211.339 L 124.8809 348.7627 C 124.88182808681405 354.8105445232441 127.2854273149023 360.610271025904 131.56284621278908 364.88579576687795 C 135.84026511067586 369.1613205078519 141.64105565892405 371.5623506555752 147.6889 371.5606 L 364.3151 371.5606 C 370.36232451263356 371.5615283209716 376.1622260735287 369.1601064049096 380.43883153531397 364.8846449219578 C 384.71543699709923 360.6091834390059 387.11841049059063 354.8099245445785 387.11909999999995 348.7627 L 387.11909999999995 211.339 C 387.1194448514912 205.29099859843157 384.7169630940581 199.49062468110645 380.4402771371013 195.21414501929758 C 376.1635911801445 190.9376653574887 370.36310137789667 188.5354634031137 364.3151 188.5361 Z M 256 339.4659 C 222.64802776987898 339.46424313140716 195.61220893355863 312.4258723129587 195.61370009686885 279.0739000750174 C 195.61519126017902 245.721927837076 222.65342775406342 218.68597466417987 256.0053999990018 218.68730012220738 C 289.3573722439402 218.68862558023494 316.39345975274483 245.7267277488878 316.3923 279.0786999999999 C 316.3902013871086 312.43075200661406 289.35205206491077 339.4666180151851 256 339.4659 Z M 363.602 234.25089999999997 L 336.55199999999996 234.25089999999997 L 336.55199999999996 220.13489999999996 L 363.602 220.13489999999996 Z" stroke-linecap="round" />
</g>
</g>
</g>
</svg>