<svg xmlns="http://www.w3.org/2000/svg" viewBox="0 0 512 512">
  <title>Camera</title>
  <g id="Camera">
    <g id="Camera-2" data-name="Camera">
    <path d="M256,243.592a35.4821,35.4821,0,1,1-35.4816,35.4867A35.486,35.486,0,0,1,256,243.592Z"/>
    <path d="M364.3151,188.5361H245.4175V154.123a13.676,13.676,0,0,0-13.6826-13.6836H177.3291a13.6826,13.6826,0,0,0-13.6836,13.6836v34.4131H147.6889a22.8024,22.8024,0,0,0-22.808,22.8029V348.7627a22.8014,22.8014,0,0,0,22.808,22.7979H364.3151a22.8005,22.8005,0,0,0,22.804-22.7979V211.339A22.8016,22.8016,0,0,0,364.3151,188.5361ZM256,339.4659a60.3893,60.3893,0,1,1,60.3923-60.3872A60.391,60.391,0,0,1,256,339.4659Zm107.602-105.215h-27.05v-14.116h27.05Z"/>
    </g>
  </g>
</svg>
