<svg xmlns="http://www.w3.org/2000/svg" viewBox="0 0 512 512">
  <title>Video</title>
  <g id="Video">
    <g id="Video-2" data-name="Video">
      <path d="M384.1037,225.1618l-41.452,24.8754H322.1672v-46.3a11.3984,11.3984,0,0,0-11.3995-11.4045H224.8518V170.4163a9.34,9.34,0,0,0-9.3422-9.3371H168.427a9.339,9.339,0,0,0-9.3411,9.3371v21.9169H129.372a11.405,11.405,0,0,0-11.4035,11.4045V339.5123a11.4052,11.4052,0,0,0,11.4035,11.4085H310.7727a11.4052,11.4052,0,0,0,11.4035-11.4085v-40.069h20.4755l41.4571,24.8794a9.9253,9.9253,0,0,0,9.9227-9.9217V235.0845A9.9241,9.9241,0,0,0,384.1037,225.1618ZM257.7045,276.5173l-68.3887,39.4834a5.8237,5.8237,0,0,1-5.8132,0,5.82,5.82,0,0,1-2.909-5.04V231.999a5.8156,5.8156,0,0,1,8.7222-5.04l68.3887,39.4834a5.816,5.816,0,0,1,0,10.0749Z"/>
    </g>
  </g>
</svg>
